<?xml version="1.0" encoding="utf-8"?>
<!-- Generator: Adobe Illustrator 26.1.0, SVG Export Plug-In . SVG Version: 6.00 Build 0)  -->
<svg version="1.1" id="Layer_1" xmlns="http://www.w3.org/2000/svg" xmlns:xlink="http://www.w3.org/1999/xlink" x="0px" y="0px"
	 viewBox="0 0 375.7 377.5" style="enable-background:new 0 0 375.7 377.5;" xml:space="preserve">
<style type="text/css">
	.st0{fill:#D8BF48;}
	.st1{fill:#80BB41;}
	.st2{fill:#FF0000;}
	.st3{fill:#FDE977;}
	.st4{fill:#B1A266;}
</style>
<polygon class="st0" points="219.1,147.5 187.8,129.3 187.8,157 199.4,148.9 "/>
<g>
	<path class="st1" d="M144.1,146v45.9c0,0-33.5,53.9,20.4,80.1v33.5c0,0-11.7,8.7,0,8.7s18.9,0,18.9,0v-34.2h4.3V157.7L172.5,146
		L144.1,146L144.1,146z"/>
	<path class="st1" d="M231.5,191.9V146h-28.4l-15.2,11.7v122.4h4.3v34.2c0,0,7.3,0,18.9,0c11.7,0,0-8.7,0-8.7v-33.5
		C265,245.9,231.5,191.9,231.5,191.9z"/>
</g>
<path class="st2" d="M187.9,253.3h-46.7c0,0,5.2,13.4,22.1,17.8v21h19.9v-12.6l4.6,0.3l4.6-0.3v12.6h19.9v-21
	c16.9-4.4,22.1-17.8,22.1-17.8L187.9,253.3L187.9,253.3z"/>
<path class="st2" d="M260.7,40.4c0,0,9.5,23.3-3.6,27.7c-13.1,4.4-26.2,28.4-26.2,28.4c-13.8-27-43-21.1-43-21.1s-29.1-5.8-43,21.1
	c0,0-13.1-24-26.2-28.4S115,40.4,115,40.4S61.8,122,144.9,148.2h11.7l31.3-18.9l31.3,18.9h11.7C313.9,122,260.7,40.4,260.7,40.4z"/>
<polygon class="st3" points="156.5,147.5 187.9,129.3 187.9,157 176.2,148.9 "/>
<circle class="st4" cx="165.7" cy="124.4" r="4.9"/>
<circle class="st4" cx="208.4" cy="124.4" r="4.9"/>
</svg>
