<?xml version="1.0" encoding="utf-8"?>
<!-- Generator: Adobe Illustrator 26.1.0, SVG Export Plug-In . SVG Version: 6.00 Build 0)  -->
<svg version="1.1" id="Layer_1" xmlns="http://www.w3.org/2000/svg" xmlns:xlink="http://www.w3.org/1999/xlink" x="0px" y="0px"
	 viewBox="0 0 375.7 377.5" style="enable-background:new 0 0 375.7 377.5;" xml:space="preserve">
<style type="text/css">
	.st0{fill:#416AB3;}
	.st1{fill:#B44AFF;}
	.st2{fill:#010101;}
	.st3{fill:#FFFFFF;}
</style>
<path class="st0" d="M241.1,224.3c0,0,1.4-15.3-11.3-29.2l-0.4-50.9c0,0-5.2-56.1-42.7-47.4c-35.9-8.7-40.9,47.4-40.9,47.4
	l-0.3,50.9c-12.2,13.9-10.9,29.2-10.9,29.2c-3.1,30.2,19,44.5,19,44.5l4.6,32.9l4.5,0.7l0.3,6.1c-6.1,0.7-4.8,6.1-4.8,6.1
	c23.8,6.8,24.1-2.4,24.1-2.4V302h4.1h0.3h4.3v10.2c0,0,0.4,9.2,25.2,2.4c0,0,1.4-5.4-5-6.1l0.4-6.1l4.7-0.7l4.8-32.9
	C221.3,268.8,244.3,254.5,241.1,224.3z"/>
<path class="st1" d="M234.4,114.2c0,0-4.1-13.2-18.6-12.5c0,0,6.5-32.1-20.5-36.8c0,0,0,0,0,0c-7.6-2.4-15,0-15,0l0,0
	c-26.9,4.7-20.5,36.8-20.5,36.8c-14.5-0.8-18.6,12.5-18.6,12.5s-6.6,28.8,15.5,28.5c20.8-0.2,29.9-20.7,30.9-23.2h0.2
	c1,2.5,10.2,22.9,30.9,23.2C241,143,234.4,114.2,234.4,114.2z"/>
<path class="st1" d="M230.2,194.8c-1.8-0.6-39.6,22.6-44.1,24.7c-4.2-2.1-39.6-25.4-41.3-24.7c-9.5,3.4-10.5,29.9-10.5,29.9
	l14.9-0.3l8.8,78h28.1h0.1h29.9l9.4-78l15.9,0.3C241.5,224.7,240.4,198.2,230.2,194.8z"/>
<path class="st2" d="M154.3,266.7c0,0-3.7,3.7,3.1,4.1c6.8,0.3,61.1,0,61.1,0s9.5-2.7,0-4.1C208.9,265.4,154.3,266.7,154.3,266.7z"
	/>
<circle class="st3" cx="174.1" cy="157.4" r="3.3"/>
<circle class="st3" cx="202" cy="157.4" r="3.3"/>
<polyline class="st3" points="187.9,184 174.7,171.4 201.1,171.4 "/>
</svg>
