<?xml version="1.0" encoding="utf-8"?>
<!-- Generator: Adobe Illustrator 26.1.0, SVG Export Plug-In . SVG Version: 6.00 Build 0)  -->
<svg version="1.1" id="Layer_1" xmlns="http://www.w3.org/2000/svg" xmlns:xlink="http://www.w3.org/1999/xlink" x="0px" y="0px"
	 viewBox="0 0 375.7 377.5" style="enable-background:new 0 0 375.7 377.5;" xml:space="preserve">
<style type="text/css">
	.st0{fill:#F6A9C3;}
	.st1{fill:#CC92AA;}
	.st2{fill:#5349D6;}
	.st3{fill:#6D6D6D;}
</style>
<path class="st0" d="M230.1,141.1c-10.8-76.2-42.3-61.6-42.3-61.6s-31.5-14.7-42.3,61.6s-26.3,109.3,16,108.8l0.5,40.3
	c0,0-18.6,7.7-17,15s38.2,3.6,38.2,3.6v-59.4l4.6-0.5l4.6,0.5v59.4c0,0,36.6,3.6,38.2-3.6c1.6-7.2-17-15-17-15l0.5-40.3
	C256.5,250.4,241,217.4,230.1,141.1z"/>
<path class="st1" d="M136.9,241c0,0,58.4-33.6,101.9,0H136.9z"/>
<path class="st2" d="M136.9,194c0,0-5.4,40.6,0,46.2c0,0,63.6-17.4,101.9,0c0,0,7.6-0.6,0-46.2H136.9z"/>
<circle class="st0" cx="187.8" cy="201.9" r="2.4"/>
<circle class="st0" cx="187.8" cy="212.2" r="2.4"/>
<circle class="st0" cx="187.8" cy="222.5" r="2.4"/>
<path class="st2" d="M162,290.1h21.2v18.6c0,0-50.6,4.6-35.9-9.3L162,290.1z"/>
<path class="st2" d="M213.8,290.1h-21.2v18.6c0,0,50.6,4.6,35.9-9.3L213.8,290.1z"/>
<polygon class="st2" points="188.3,60.1 179,80.6 197.6,80.7 "/>
<circle class="st3" cx="173.4" cy="117.4" r="3.4"/>
<circle class="st3" cx="201.1" cy="117.4" r="3.4"/>
<path class="st2" d="M227,132.7v-0.8h-4.2h-18.1h-51.9c-5.4,0-9.7,3.6-9.7,8v10.7c0,4.4,4.4,8,9.7,8h51.9v27.5H227v-28.3
	c3.3-1.3,5.6-4,5.6-7.2v-10.7C232.6,136.7,230.3,134,227,132.7z"/>
<rect x="206" y="171.2" class="st0" width="1.2" height="14.9"/>
<rect x="209.1" y="171.2" class="st0" width="1.2" height="14.9"/>
<rect x="212" y="171.2" class="st0" width="1.2" height="14.9"/>
<rect x="215.1" y="171.2" class="st0" width="1.2" height="14.9"/>
<rect x="220.9" y="171.2" class="st0" width="1.2" height="14.9"/>
<rect x="218" y="171.2" class="st0" width="1.2" height="14.9"/>
<rect x="223.8" y="171.2" class="st0" width="1.2" height="14.9"/>
<polygon class="st3" points="176.8,128.9 196.1,128.9 194.8,131.9 179,131.9 "/>
</svg>
