<?xml version="1.0" encoding="utf-8"?>
<!-- Generator: Adobe Illustrator 26.1.0, SVG Export Plug-In . SVG Version: 6.00 Build 0)  -->
<svg version="1.1" id="Layer_1" xmlns="http://www.w3.org/2000/svg" xmlns:xlink="http://www.w3.org/1999/xlink" x="0px" y="0px"
	 viewBox="0 0 375.7 377.5" style="enable-background:new 0 0 375.7 377.5;" xml:space="preserve">
<style type="text/css">
	.st0{fill:#FF0000;}
	.st1{fill:#FFFFFF;}
	.st2{fill:#010101;}
	.st3{fill:#FFDAA5;}
	.st4{fill:#644B2E;}
</style>
<path class="st0" d="M236,162.1l-36.6,2.1l-11.6,41.9l-11.6-41.9l-36.6-2.1c-37,63.5,21.2,97.2,21.2,97.2l0.4,39l-3.7,0.8
	c-7.1,9.5-7.1,7.5,12,7.5s12.5-8.7,12.5-8.7c-2.1-43.2,5.8-32,5.8-32s7.9-11.2,5.8,32c0,0-6.6,8.7,12.5,8.7s19.1,2.1,12-7.5
	l-3.7-0.8l0.4-39C214.9,259.3,273,225.6,236,162.1z"/>
<polygon class="st1" points="176.2,164.2 199.5,164.2 187.9,206.1 "/>
<path class="st2" d="M187.8,164.7c0,0-4.6-1.2-4.2,7.9s-2.9,30.3,4.2,32.8c7.1,2.5,4.1-25.8,4.1-25.8S192.5,163.8,187.8,164.7z"/>
<g>
	<path class="st3" d="M141.6,123.9l-1.9,38.2l36.6,2.1l11.6,0.6l0.1-91.5C187.9,73.2,144.5,65.3,141.6,123.9z"/>
	<path class="st3" d="M234.1,123.9c-2.9-58.6-46.3-50.7-46.3-50.7l0.1,91.5l11.6-0.6l36.6-2.1L234.1,123.9z"/>
</g>
<path class="st0" d="M187.9,70.7c0,0-51.5,5.8-50.2,41.1h50.2h50.2C239.4,76.5,187.9,70.7,187.9,70.7z"/>
<rect x="147.8" y="103.7" class="st3" width="3.3" height="20.6"/>
<rect x="158.6" y="103.7" class="st3" width="3.3" height="20.6"/>
<rect x="169.4" y="103.7" class="st3" width="3.3" height="20.6"/>
<rect x="178.8" y="103.7" class="st3" width="3.3" height="20.6"/>
<rect x="187.9" y="104.3" class="st3" width="3.3" height="20.6"/>
<rect x="197.8" y="103.7" class="st3" width="3.3" height="20.6"/>
<rect x="208.6" y="103.7" class="st3" width="3.3" height="20.6"/>
<rect x="220.1" y="103.7" class="st3" width="3.3" height="20.6"/>
<circle class="st1" cx="187.9" cy="124.8" r="10.3"/>
<circle class="st4" cx="188.1" cy="124.8" r="7.6"/>
<rect x="172.8" y="139.7" class="st2" width="30.5" height="5.3"/>
</svg>
