<?xml version="1.0" encoding="utf-8"?>
<!-- Generator: Adobe Illustrator 26.1.0, SVG Export Plug-In . SVG Version: 6.00 Build 0)  -->
<svg version="1.1" id="Layer_1" xmlns="http://www.w3.org/2000/svg" xmlns:xlink="http://www.w3.org/1999/xlink" x="0px" y="0px"
	 viewBox="0 0 337 337" style="enable-background:new 0 0 337 337;" xml:space="preserve">
<style type="text/css">
	.st0{fill:#FFB6DE;}
</style>
<path class="st0" d="M93.6,69.9h27.8c6.6,0,12,5.4,12,12v171.7c0,6.6-5.4,12-12,12H93.6c-6.6,0-12-5.4-12-12V81.9
	C81.6,75.3,87,69.9,93.6,69.9z"/>
<path class="st0" d="M215.2,69.9h27.8c6.6,0,12,5.4,12,12v171.7c0,6.6-5.4,12-12,12h-27.8c-6.6,0-12-5.4-12-12V81.9
	C203.2,75.3,208.6,69.9,215.2,69.9z"/>
</svg>
